<?xml version="1.0" encoding="UTF-8"?>
<svg id="Layer_1" data-name="Layer 1" xmlns="http://www.w3.org/2000/svg" viewBox="0 0 240.14 179.08">
  <defs>
    <style>
      .cls-1, .cls-2, .cls-3, .cls-4 {
        stroke-width: 0px;
      }

      .cls-5 {
        isolation: isolate;
      }

      .cls-2 {
        fill: #29aaff;
      }

      .cls-3 {
        fill: #ff4800;
      }

      .cls-4 {
        fill: #fcee21;
      }
    </style>
  </defs>
  <path class="cls-3" d="m213.37,74.27l2.97-1.22c7.35-3.02,7.1-13.52-.39-16.19l-11.31-4.04c-4.39-1.56-6.75-6.32-5.36-10.76l2.92-9.33c2.14-6.83-4.45-13.16-11.19-10.76l-17.36,6.19c-5.7,2.03-11.68-2.25-11.59-8.3l.03-1.76c.13-8.71-11.21-12.15-15.95-4.86l-6.89,10.62c-2.73,4.2-8.43,5.22-12.45,2.24l-6.95-5.17c-4.39-3.27-10.67-1.7-13.02,3.24l-.02.03c-2.86,6.03-11.17,6.71-14.97,1.21l-6.65-9.61c-5.9-8.54-19.1-1.38-15.15,8.22h0c2.9,7.07-4.1,14.17-11.21,11.35l-9.06-3.59c-6.2-2.46-12.74,2.72-11.78,9.32l.46,3.13c.85,5.81-4.2,10.77-10,9.81l-9.89-1.64c-9.08-1.51-13.94,10.33-6.42,15.63l14.41,10.18c4.73,3.34,4.91,10.3.38,13.88l-4.13,3.27c-5.79,4.57-3.59,13.84,3.65,15.31l3.13.63c5.04,1.03,8.09,6.17,6.55,11.08l-1.13,3.63c-2.23,7.16,5.07,13.59,11.89,10.47l11.58-5.31c4.09-1.87,8.92-.32,11.14,3.59l6.04,10.6c2.46,4.31,8.03,5.69,12.21,3l13.47-8.62c3.81-2.44,8.85-1.54,11.59,2.06l18.64,24.57c4.71,6.2,14.56,3.55,15.51-4.18l3.43-27.83c.76-6.2,7.65-9.59,13.03-6.4l10.21,6.05c6.28,3.72,14.06-1.5,13-8.72l-.23-1.57c-.91-6.22,4.9-11.32,10.96-9.6l23.1,6.57c8.69,2.48,14.89-8.33,8.39-14.59l-18.3-17.59c-4.52-4.34-3.08-11.89,2.71-14.27v.04Zm-28.64,3.07l-1.98.82c-3.86,1.59-4.82,6.62-1.81,9.52l12.2,11.73c4.34,4.17.21,11.38-5.59,9.72l-15.4-4.39c-4.04-1.15-7.91,2.25-7.3,6.4l.15,1.04c.71,4.81-4.48,8.29-8.67,5.81l-6.81-4.04c-3.59-2.13-8.18.13-8.69,4.26l-2.29,18.56c-.63,5.15-7.21,6.92-10.34,2.79l-12.42-16.38c-1.83-2.4-5.19-3-7.72-1.37l-8.98,5.75c-2.79,1.78-6.49.87-8.14-2l-4.03-7.07c-1.49-2.6-4.71-3.64-7.43-2.39l-7.72,3.54c-4.55,2.08-9.41-2.2-7.93-6.97l.75-2.42c1.02-3.27-1.02-6.7-4.37-7.39l-2.08-.42c-4.82-.98-6.3-7.15-2.44-10.2l2.76-2.17c3.03-2.39,2.91-7.03-.24-9.26l-9.61-6.79c-5.02-3.54-1.78-11.43,4.28-10.43l6.6,1.09c3.86.64,7.23-2.66,6.66-6.54l-.3-2.08c-.64-4.4,3.71-7.85,7.85-6.21l6.03,2.39c4.73,1.87,9.41-2.85,7.47-7.57h0c-2.63-6.4,6.17-11.17,10.1-5.48l4.43,6.41c2.53,3.66,8.08,3.21,9.98-.81v-.02c1.57-3.29,5.76-4.34,8.69-2.16l4.63,3.45c2.68,2,6.49,1.31,8.3-1.49l4.59-7.08c3.16-4.87,10.72-2.57,10.63,3.24l-.02,1.18c-.07,4.04,3.93,6.89,7.73,5.53l11.57-4.13c4.49-1.6,8.89,2.62,7.46,7.17l-1.95,6.21c-.92,2.97.65,6.13,3.58,7.17l7.55,2.69c4.99,1.78,5.16,8.77.25,10.79h0Z"/>
  <path class="cls-2" d="m163.48,72.99l-5.03-1.8c-1.95-.7-3-2.81-2.38-4.78l1.3-4.14c.95-3.03-1.98-5.85-4.97-4.78l-7.71,2.75c-2.53.9-5.19-1-5.15-3.69v-.78c.08-3.87-4.97-5.4-7.08-2.16l-3.06,4.72c-1.21,1.86-3.75,2.32-5.53,1l-3.09-2.3c-1.95-1.45-4.74-.75-5.78,1.44h0c-1.27,2.69-4.97,2.99-6.65.56l-2.96-4.27c-2.63-3.79-8.49-.61-6.74,3.65h0c1.29,3.14-1.83,6.3-4.99,5.05l-4.02-1.59c-2.76-1.09-5.66,1.2-5.23,4.14l.21,1.38c.38,2.58-1.86,4.79-4.44,4.36l-4.4-.72c-4.04-.67-6.19,4.58-2.85,6.95l6.4,4.53c2.1,1.49,2.18,4.57.17,6.17l-1.84,1.45c-2.57,2.03-1.59,6.15,1.62,6.81l1.39.28c2.24.45,3.6,2.74,2.91,4.92l-.5,1.62c-.99,3.18,2.25,6.04,5.28,4.65l5.15-2.36c1.82-.83,3.96-.14,4.95,1.59l2.68,4.71c1.09,1.92,3.57,2.52,5.42,1.34l5.99-3.83c1.69-1.08,3.93-.69,5.15.91l8.28,10.92c2.09,2.76,6.48,1.57,6.9-1.85l1.52-12.37c.34-2.76,3.4-4.26,5.79-2.84l4.54,2.69c2.79,1.66,6.25-.67,5.78-3.88l-.1-.7c-.4-2.77,2.17-5.03,4.87-4.26l10.27,2.92c3.86,1.1,6.62-3.7,3.73-6.49l-8.13-7.82c-2-1.93-1.36-5.28,1.2-6.34l1.32-.55c3.27-1.35,3.15-6.01-.17-7.19h-.02Z"/>
  <path class="cls-4" d="m182.74,78.14l1.98-.82c4.89-2.01,4.73-9.01-.25-10.79l-7.55-2.69c-2.93-1.04-4.5-4.21-3.58-7.17l1.95-6.21c1.42-4.56-2.97-8.77-7.46-7.17l-11.57,4.13c-3.8,1.36-7.78-1.5-7.73-5.53l.02-1.18c.08-5.8-7.47-8.1-10.63-3.24l-4.59,7.08c-1.82,2.8-5.62,3.48-8.3,1.49l-4.63-3.45c-2.93-2.17-7.12-1.14-8.68,2.16v.02c-1.92,4.02-7.46,4.47-9.99.81l-4.43-6.41c-3.93-5.69-12.73-.92-10.1,5.48h0c1.94,4.72-2.74,9.44-7.47,7.57l-6.03-2.39c-4.13-1.64-8.49,1.82-7.85,6.21l.3,2.08c.56,3.88-2.81,7.18-6.66,6.54l-6.6-1.09c-6.06-1.01-9.29,6.88-4.28,10.43l9.61,6.79c3.15,2.23,3.28,6.86.24,9.26l-2.76,2.17c-3.86,3.05-2.39,9.22,2.44,10.2l2.08.42c3.36.68,5.38,4.11,4.37,7.39l-.75,2.42c-1.49,4.77,3.38,9.06,7.93,6.97l7.72-3.54c2.72-1.25,5.95-.21,7.43,2.39l4.03,7.07c1.64,2.87,5.35,3.78,8.14,2l8.98-5.75c2.54-1.63,5.9-1.03,7.72,1.37l12.42,16.38c3.13,4.13,9.7,2.36,10.34-2.79l2.29-18.56c.51-4.14,5.1-6.39,8.69-4.26l6.81,4.04c4.18,2.48,9.38-1,8.67-5.81l-.15-1.04c-.61-4.15,3.27-7.55,7.3-6.4l15.4,4.39c5.79,1.65,9.93-5.55,5.59-9.72l-12.2-11.73c-3.01-2.89-2.05-7.93,1.81-9.52h0Zm-19.1,2.04l-1.32.55c-2.57,1.06-3.21,4.41-1.2,6.34l8.13,7.82c2.89,2.79.13,7.59-3.73,6.49l-10.27-2.92c-2.69-.76-5.27,1.5-4.87,4.26l.1.7c.47,3.21-2.99,5.53-5.78,3.88l-4.54-2.69c-2.39-1.42-5.45.08-5.79,2.84l-1.52,12.37c-.42,3.44-4.8,4.61-6.9,1.85l-8.28-10.92c-1.21-1.6-3.45-2-5.15-.91l-5.99,3.83c-1.85,1.19-4.33.58-5.42-1.34l-2.68-4.71c-.99-1.73-3.13-2.43-4.95-1.59l-5.15,2.36c-3.03,1.39-6.28-1.47-5.28-4.65l.5-1.62c.68-2.18-.68-4.47-2.91-4.92l-1.39-.28c-3.22-.65-4.2-4.76-1.62-6.81l1.84-1.45c2.02-1.6,1.94-4.69-.17-6.17l-6.4-4.53c-3.34-2.36-1.19-7.61,2.85-6.95l4.4.72c2.58.42,4.82-1.78,4.44-4.36l-.21-1.38c-.43-2.94,2.48-5.23,5.23-4.14l4.02,1.59c3.16,1.25,6.28-1.9,4.99-5.05h0c-1.75-4.26,4.11-7.45,6.74-3.65l2.96,4.27c1.68,2.44,5.38,2.14,6.65-.54h0c1.04-2.21,3.83-2.91,5.78-1.46l3.09,2.3c1.79,1.33,4.32.88,5.53-1l3.06-4.72c2.11-3.25,7.14-1.71,7.09,2.16v.78c-.06,2.69,2.61,4.59,5.14,3.69l7.71-2.75c2.99-1.07,5.92,1.74,4.97,4.78l-1.3,4.14c-.62,1.98.43,4.09,2.38,4.78l5.03,1.8c3.32,1.19,3.44,5.85.17,7.19h.02Z"/>
  <g class="cls-5">
    <path class="cls-1" d="m70.18,93.15l-.4-.03c-1.84,3.42-5.45,5.69-8.63,5.46-6.52-.47-10.72-8.24-9.98-18.46.74-10.27,7.04-17.23,14.99-16.66,2.07.15,4.44,1.01,5.65,2.04l-.6,8.32c-1.36-1.65-4.1-2.95-6.57-3.12-5.96-.43-10.65,3.6-11.08,9.6-.43,5.96,3.43,10.65,9.16,11.06,4.42.32,7.74-1.52,7.95-4.32.16-2.23-1.63-3.99-4.3-4.18-1.99-.14-4.63.44-6.3,1.38l-1.45.71.54-7.51,12.33.89,3.51,20.65-4.82-5.81Z"/>
    <path class="cls-1" d="m97.08,100.55l-.27-1.85c-1.1-7.42-4.86-12.99-9.04-13.29l-1.39-.1-.54,7.51,4.28,7.24-11.93-.86,5.27-6.55,1.46-20.29-4.28-7.24,13.72.99c4.73.34,7.84,4.93,7.41,10.93-.3,4.14-3.56,7.74-7.82,8.61l-.03.41,10.11,15-6.96-.5Zm-3.06-18.57c2.9.21,5.11-1.59,5.31-4.31.18-2.48-1.76-4.41-4.67-4.62l-6.16-.44c-.68-.05-1.23.44-1.28,1.13l-.55,7.71,7.36.53Z"/>
    <path class="cls-1" d="m109.08,67.16l21.08,1.52-.63,8.72c-2.4-1.6-7.46-2.98-11.75-3.29l-1.99-.14-.51,7.1c-.05.69.43,1.25,1.11,1.3,1.95.14,4.78.18,6.79.08l3.61-.15-.39,5.48-3.55-.66c-2.01-.39-4.82-.75-6.73-.89-.68-.05-1.23.44-1.28,1.13l-.58,8.12,1.99.14c4.29.31,9.5-.38,12.1-1.58l-.63,8.72-21.08-1.52,5.27-6.55,1.46-20.29-4.28-7.24Z"/>
    <path class="cls-1" d="m152.61,98.23l-13.52-.97-.45,6.29-6.16-.44,12.58-27.64-2.77-5.91,5.77.42,10.27,35-6.16-.44.45-6.29Zm-5.28-18.33l-.4-.03-7.48,12.31,13.52.97-5.64-13.25Z"/>
    <path class="cls-1" d="m183.64,80.89c-2.18-1.34-5.98-2.47-9-2.69l-1.59-.11-1.5,20.9,4.28,7.24-11.93-.86,5.27-6.55,1.5-20.9-1.59-.11c-3.02-.22-6.9.36-9.29,1.37l.6-8.32,23.86,1.72-.6,8.32Z"/>
    <path class="cls-1" d="m189.52,99.26c1.99.14,3.26,1.95,3.09,4.3s-1.68,3.96-3.67,3.81c-1.95-.14-3.26-1.95-3.09-4.3s1.72-3.95,3.67-3.81Zm3.67-26.04l-2.63,22.65-1.59-.11.64-22.79,3.58.26Z"/>
  </g>
</svg>